<?xml version="1.0" encoding="UTF-8" standalone="no"?>
<!DOCTYPE svg PUBLIC "-//W3C//DTD SVG 1.1//EN"
 "http://www.w3.org/Graphics/SVG/1.1/DTD/svg11.dtd">
<!-- Generated by graphviz version 8.1.0 (20230707.0739)
 -->
<!-- Pages: 1 -->
<svg width="332pt" height="112pt"
 viewBox="0.00 0.00 332.00 111.90" xmlns="http://www.w3.org/2000/svg" xmlns:xlink="http://www.w3.org/1999/xlink">
<g id="graph0" class="graph" transform="scale(1 1) rotate(0) translate(4 107.9)">
<polygon fill="white" stroke="none" points="-4,4 -4,-107.9 328,-107.9 328,4 -4,4"/>
<!-- b -->
<g id="node1" class="node">
<title>b</title>
<ellipse fill="none" stroke="black" cx="117" cy="-85.9" rx="27" ry="18"/>
<text text-anchor="middle" x="117" y="-80.85" font-family="Times,serif" font-size="14.00">b</text>
</g>
<!-- d -->
<g id="node5" class="node">
<title>d</title>
<ellipse fill="none" stroke="black" cx="207" cy="-73.9" rx="27" ry="18"/>
<text text-anchor="middle" x="207" y="-68.85" font-family="Times,serif" font-size="14.00">d</text>
</g>
<!-- b&#45;&#45;d -->
<g id="edge3" class="edge">
<title>b&#45;&#45;d</title>
<path fill="none" stroke="black" d="M143.93,-82.37C155.38,-80.81 168.82,-78.97 180.26,-77.41"/>
</g>
<!-- c -->
<g id="node2" class="node">
<title>c</title>
<ellipse fill="none" stroke="black" cx="117" cy="-31.9" rx="27" ry="18"/>
<text text-anchor="middle" x="117" y="-26.85" font-family="Times,serif" font-size="14.00">c</text>
</g>
<!-- e -->
<g id="node4" class="node">
<title>e</title>
<ellipse fill="none" stroke="black" cx="297" cy="-27.9" rx="27" ry="18"/>
<text text-anchor="middle" x="297" y="-22.85" font-family="Times,serif" font-size="14.00">e</text>
</g>
<!-- c&#45;&#45;e -->
<g id="edge6" class="edge">
<title>c&#45;&#45;e</title>
<path fill="none" stroke="black" d="M144.26,-31.31C177.92,-30.56 235.92,-29.25 269.63,-28.5"/>
</g>
<!-- c&#45;&#45;d -->
<g id="edge4" class="edge">
<title>c&#45;&#45;d</title>
<path fill="none" stroke="black" d="M139.75,-42.29C153.39,-48.8 170.9,-57.15 184.5,-63.64"/>
</g>
<!-- a -->
<g id="node3" class="node">
<title>a</title>
<ellipse fill="none" stroke="black" cx="27" cy="-31.9" rx="27" ry="18"/>
<text text-anchor="middle" x="27" y="-26.85" font-family="Times,serif" font-size="14.00">a</text>
</g>
<!-- a&#45;&#45;b -->
<g id="edge1" class="edge">
<title>a&#45;&#45;b</title>
<path fill="none" stroke="black" d="M47.53,-43.89C62.11,-52.84 81.95,-65.01 96.52,-73.95"/>
</g>
<!-- a&#45;&#45;c -->
<g id="edge2" class="edge">
<title>a&#45;&#45;c</title>
<path fill="none" stroke="black" d="M54.4,-31.9C65.54,-31.9 78.48,-31.9 89.62,-31.9"/>
</g>
<!-- a&#45;&#45;e -->
<g id="edge5" class="edge">
<title>a&#45;&#45;e</title>
<path fill="none" stroke="black" d="M48.52,-20.42C60.27,-14.51 75.52,-7.92 90,-4.9 155,8.63 233.31,-9.29 271.98,-20.36"/>
</g>
<!-- d&#45;&#45;e -->
<g id="edge7" class="edge">
<title>d&#45;&#45;e</title>
<path fill="none" stroke="black" d="M228.85,-63C242.78,-55.72 261.03,-46.18 274.99,-38.89"/>
</g>
</g>
</svg>
